# xmcd CD database file
#
# Track frame offsets:
#	150
#	13508
#	29723
#	47300
#	63710
#	79468
#	97765
#	114028
#	135545
#	154683
#	175495
#	201608
#
# Disc length: 2953 seconds
#
# Revision: 1
# Processed by: cddbd v1.5.2PL0 Copyright (c) Steve Scherf et al.
# Submitted via: CDex 1.70beta2
#
DISCID=9c0b870c
DTITLE=Kagrra, - 燦～san～
DYEAR=2005
DGENRE=J-Pop
TTITLE0=斑雲
TTITLE1=幻影の貌～燦remix～
TTITLE2=卡
TTITLE3=鬼を憐れむ謳
TTITLE4=皐月
TTITLE5=孑孒
TTITLE6=憶～燦remix～
TTITLE7=廻
TTITLE8=誘いの樹海
TTITLE9=秘灮
TTITLE10=沙羅双樹の子護唄～燦remix～
TTITLE11=在りし日の微傷
EXTD=YEAR: 2005
EXTT0=
EXTT1=
EXTT2=
EXTT3=
EXTT4=
EXTT5=
EXTT6=
EXTT7=
EXTT8=
EXTT9=
EXTT10=
EXTT11=
PLAYORDER=
